<?xml version="1.0" standalone="no"?>
<!DOCTYPE svg PUBLIC "-//W3C//DTD SVG 20010904//EN"
 "http://www.w3.org/TR/2001/REC-SVG-20010904/DTD/svg10.dtd">
<svg version="1.0" xmlns="http://www.w3.org/2000/svg"
 width="150.000000pt" height="150.000000pt" viewBox="0 0 150.000000 150.000000"
 preserveAspectRatio="xMidYMid meet">
<metadata>
Created by potrace 1.16, written by Peter Selinger 2001-2019
</metadata>
<g transform="translate(0.000000,150.000000) scale(0.100000,-0.100000)"
fill="#000000" stroke="none">
<path d="M530 1476 c-253 -76 -448 -278 -514 -533 -22 -83 -22 -303 0 -386 67
-258 270 -466 525 -537 104 -28 314 -28 418 0 255 71 458 279 525 537 22 83
22 303 0 386 -67 258 -270 466 -525 537 -108 30 -324 28 -429 -4z m320 -7
c302 -49 539 -264 607 -554 33 -137 17 -324 -38 -450 -57 -131 -178 -269 -300
-340 -134 -78 -311 -116 -449 -97 -320 45 -558 261 -631 572 -17 71 -17 229 0
300 60 255 239 456 477 536 126 42 221 52 334 33z"/>
<path d="M485 1203 c-39 -10 -65 -44 -65 -85 0 -37 -1 -38 -35 -38 -28 0 -35
-4 -35 -20 0 -16 -7 -20 -35 -20 -35 0 -35 0 -35 -45 0 -45 0 -45 35 -45 28 0
35 -4 35 -20 0 -16 7 -20 35 -20 33 0 35 -2 35 -34 0 -32 -3 -35 -32 -38 -25
-2 -34 -8 -36 -25 -3 -19 -10 -23 -38 -23 -33 0 -34 -1 -34 -40 0 -39 1 -40
34 -40 28 0 35 -4 38 -22 2 -18 11 -24 36 -26 29 -3 32 -6 32 -38 0 -32 -2
-34 -35 -34 -28 0 -35 -4 -35 -19 0 -15 -8 -21 -32 -23 -31 -3 -33 -6 -36 -46
l-3 -42 35 0 c29 0 36 -4 36 -19 0 -15 8 -21 33 -23 29 -3 32 -6 35 -39 2 -23
12 -45 28 -60 l26 -24 278 0 278 0 26 24 c16 15 26 37 28 60 3 33 6 36 36 39
24 2 32 8 32 23 0 15 7 19 36 19 l35 0 -3 43 c-3 39 -5 42 -35 45 -25 2 -33 8
-33 23 0 15 -7 19 -35 19 -33 0 -35 2 -35 34 0 32 3 35 33 38 24 2 33 8 35 26
3 18 10 22 38 22 33 0 34 1 34 40 0 39 -1 40 -34 40 -28 0 -35 4 -38 23 -2 17
-11 23 -35 25 -30 3 -33 6 -33 38 0 32 2 34 35 34 28 0 35 4 35 20 0 16 7 20
35 20 35 0 35 0 35 45 0 45 0 45 -35 45 -28 0 -35 4 -35 19 0 15 -8 21 -32 23
-30 3 -33 6 -36 39 -2 23 -12 45 -28 60 -25 24 -27 24 -287 26 -144 1 -271 -1
-282 -4z m553 -45 c17 -17 17 -799 0 -816 -17 -17 -559 -17 -576 0 -17 17 -17
799 0 816 17 17 559 17 576 0z"/>
<path d="M685 965 c-57 -20 -121 -93 -134 -153 -14 -67 2 -130 46 -181 47 -56
85 -73 157 -74 127 -1 215 88 204 203 l-3 35 -115 0 -115 0 0 -45 0 -45 67 0
68 0 -23 -23 c-93 -93 -243 20 -182 138 34 65 118 82 175 34 l31 -27 34 19
c42 22 43 36 10 70 -57 57 -142 76 -220 49z"/>
</g>
</svg>
